<svg xmlns="http://www.w3.org/2000/svg" xml:space="preserve" width="2000" height="184" data-id="lg_pcUz6UJUEUQoegR5Vd" data-version="1" viewBox="0 0 2000 184"><g data-padding="20"><g transform="translate(10 3.286)scale(.96429)"><rect width="560" height="131.08" x="346.167" y="-373.327" fill="none" rx="0" ry="0" transform="translate(400.5 373.34)"/><path fill="#3e3e3e" d="M810.447 76.013q.58.69 2.72 3.01 2.15 2.32 3.48 4.7 1.34 2.38 1.34 4.58 0 2.79-2.09 5.22-2.55 3.13-6.27 3.13-1.62 0-3.59-.46t-2.55-.58q-9.17-1.86-21.35-1.86-9.39 0-19.95.93-.93.12-2.67.23-1.74.12-3.13.12-4.18 0-6.67-1.33-2.49-1.34-2.49-4.93 0-2.09.81-4.47t2.43-5.74l1.05-2.44q1.74-4.29 3.83-6.55 2.08-2.26 5.91-2.26 3.13 0 4.93 2.03t1.8 5.04q0 2.09-1.04 4.18 7.3-.47 16.58-.47 5.46 0 8.24.12-10.67-13.46-15.89-20.3l-8.01-10.09q-1.85-2.32-3.13-3.6-4.29-4.99-6.49-8.52-2.21-3.54-2.21-7.25 0-3.48 2.5-5.63 2.49-2.15 5.91-3.25t8.64-2.14l4.88-1.05q9.16-2.32 18.9-4.17.82-.12 3.25-.58 3.95-1.05 6.96-1.05 3.83 0 5.8 2.09 2.09 2.2 2.09 4.52 0 2.21-1.33 4.41-1.34 2.21-4.24 5.8-3.48 4.18-4.41 6.15-1.5 3.25-3.19 5.45-1.68 2.21-3.77 2.21-1.5 0-3.01-1.16-1.63-1.28-1.63-3.48 0-1.63.76-3.43.75-1.79 1.51-3.3.75-1.51.98-1.86-5.91 1.05-17.51 4.06-1.4.47-5.69 1.51l13.92 16.01q17.87 20.3 23.09 26.45m56.02-44.32q-2.78 21.12-2.78 39.79 0 9.05.7 18.33.23.7.23 1.16 0 .35-.23 1.04 0 .12-.06.12h-.06v.23q-.7 1.97-3.25 3.42t-5.45 1.69q-4.64.46-5.57-2.44-4.06-10.9-12.87-30.16l-1.4-3.25q-.92 14.5-1.16 30.97 0 2.44-3.24 4.35-3.25 1.92-6.62 1.92-2.08 0-3.36-.81-1.28-.82-1.16-2.67.7-31.55 4.52-59.74l.12-.47q-.23-2.55 3.13-4.64 3.37-2.08 6.73-2.08 3.48 0 4.29 2.32 3.71 10.09 11.02 25.98.7-10.9 2.44-22.16.35-2.32 3.71-4.11 3.36-1.8 6.61-1.8 4.18 0 3.71 3.01m30.86 22.96-3.13 8.01-.93 2.32 8.12 6.84-.81-3.36q-.81-3.25-3.25-13.81m10.09-25.87q1.63 10.1 4.12 20.48t6.09 23.84q3.36 12.76 4.41 16.93.11.35.11 1.05 0 2.78-3.13 4.81t-6.49 2.03q-2.79 0-4.3-1.51-3.36-3.59-7.07-6.84t-9.75-8.01l-3.82-3.13q-4.88 10.44-7.54 15.43-.82 1.74-4.24 3.19t-6.32 1.45q-3.25 0-3.25-2.09 0-.58.35-1.39 3.48-8.58 8.24-19.72l2.43-5.92-2.9-2.9q-.81-.81-.81-1.85 0-1.97 2.55-3.77t5.69-2.38q5.56-13.34 10.44-27.14.46-1.63 2.95-2.85 2.5-1.21 5.28-1.56 1.97-.58 3.37-.58 3.24 0 3.59 2.43"/><path fill="#3e3e3e" d="M960.427 64.523q1.74-4.41 1.74-8.47 0-5.33-3.01-8.7-4.53-5.33-15.2-5.1-2.09 18.33-3.25 44.2 6.62-3.48 11.84-9.23 5.22-5.74 7.88-12.7m-15.31-31.32q1.28-.11 3.95-.11 14.15 0 21.11 6.96 5.22 5.1 5.22 13.1 0 4.18-1.86 9.98-3.83 10.9-12.76 19.55-8.93 8.64-20.41 13.16-.47 11.83-.7 20.71-.23 8.87-.35 14.79-.11 14.15-.69 28.42-.12 2.43-3.48 4.29-3.37 1.86-6.85 1.86-4.06 0-4.06-3.02l.12-9.28q.11-4.52.4-21.81.29-17.28.99-32.25-3.13.35-6.15.35-2.2 0-3.3-.69-1.11-.7-1.11-1.86 0-2.09 2.85-4.41 2.84-2.32 5.74-2.32 1.62 0 2.32-.11 1.27-24.94 3.94-47.91-.81-.47-.81-1.51 0-1.39 1.51-3.25 0-.69.23-2.32.35-2.43 3.71-4.23 3.37-1.8 6.5-1.8 1.97 0 3.07.81t.87 2.44Zm34.92 30.16q-2.9-.46-2.9-1.97 0-1.28 2.2-3.02 2.21-1.74 4.99-2.84t4.52-.87q6.96 1.05 13.58 1.05 7.88 0 16.12-1.4 2.44-.34 3.13-.34 3.6 0 3.71 2.66.12 2.09-2.84 3.72-2.96 1.62-5.51 2.08-9.39 2.32-20.41 2.32-8.47 0-16.59-1.39m97.33 22.27q1.74.58 1.74 2.09 0 1.86-2.2 4.06-2.44 2.44-6.27 2.44-1.85 0-3.13-.47-6.15-1.97-11.13-1.97-8.7 0-17.75 5.57-1.51 1.04-3.66 1.68-2.14.64-4 .64-1.74 0-2.78-.64-1.05-.64-1.05-2.03 0-.81.24-1.39 3.36-9.4 5.39-16.94t2.73-15.31q1.04-10.44 1.04-15.31 0-12.88-4.99-19.72-.58-.7-.58-1.86 0-2.32 3.25-4.35t6.38-2.03q2.09 0 3.02.93 1.5.58 1.97 1.86 2.9 7.65 8 12.93 5.11 5.28 12.07 5.28 1.27 0 3.82-.46 1.63-.24 2.09-.24 1.97 0 2.96.87t.99 2.38q0 1.63-1.34 3.25-1.33 1.62-3.54 2.32-4.75 1.62-9.51 1.62-5.68 0-10.9-2.32-.23 6.5-.58 9.75l-.81 7.31q4.52-.82 9.04-1.4l1.63-.11q4.64 0 4.64 3.13 0 2.09-2.32 3.71-2.32 1.63-4.76 2.09-3.59.7-9.86 1.51-1.27 5.68-2.78 10.67 7.65-2.78 15.54-2.78 8.7 0 17.4 3.24m24.93-26.22 3.37-2.79q4.52-3.59 7.36-6.38 2.84-2.78 4.35-5.56-6.26-1.63-18.56-5.34l-.58 23.55q3.48-2.9 4.06-3.48m22.04 13.45q.93-1.85 3.95-3.19 3.01-1.33 5.8-1.33 3.82 0 3.82 2.44 0 .69-.34 1.62-4.76 11.14-7.2 21.58-.58 2.32-3.36 4.29-1.16 1.51-3.54 2.55t-4.7 1.04q-1.97 0-3.19-.81-1.21-.81-1.33-2.55-.46-7.54-4.93-13.8-4.47-6.27-11.43-8.12l-.58 16.82q-.11 2.2-3.65 4.06-3.54 1.85-6.79 1.85-1.74 0-2.78-.64-1.04-.63-1.04-2.03l.34-16q-1.5-1.05-1.5-2.44 0-1.62 1.74-3.13.58-21.11 1.39-42.11.11-2.44 3.3-4.23 3.19-1.8 6.44-1.8 2.44 0 3.48 1.16 12.65 3.48 26.22 7.65 2.09-.46 2.9-.46 1.97 0 3.07.87t1.1 2.61q0 4.76-3.13 8.76t-8.7 8.87l-2.32 2.09q-5.57 5.45-10.79 9.63 9.52 2.67 15.32 10.55.46-1.16 2.43-5.8m42.7-18.21-3.13 8.01-.93 2.32 8.12 6.84-.81-3.36q-.81-3.25-3.25-13.81m10.09-25.87q1.63 10.1 4.12 20.48t6.09 23.84q3.36 12.76 4.41 16.93.11.35.11 1.05 0 2.78-3.13 4.81t-6.49 2.03q-2.79 0-4.3-1.51-3.36-3.59-7.07-6.84t-9.75-8.01l-3.82-3.13q-4.88 10.44-7.54 15.43-.82 1.74-4.24 3.19t-6.32 1.45q-3.25 0-3.25-2.09 0-.58.35-1.39 3.48-8.58 8.24-19.72l2.43-5.92-2.9-2.9q-.81-.81-.81-1.85 0-1.97 2.55-3.77t5.69-2.38q5.56-13.34 10.44-27.14.46-1.63 2.95-2.85 2.5-1.21 5.28-1.56 1.97-.58 3.37-.58 3.24 0 3.59 2.43m58.8 18.46q-2.2-1.86-7.59-4.93-5.4-3.08-8.3-3.08-2.32 0-2.32 2.32 0 .82.58 2.79.81 2.67 3.6 5.04 2.78 2.38 7.31 5.51 3.71 2.56 4.75 3.48 5.11 4.41 8.12 7.37 3.02 2.96 5.51 6.96 2.5 4 2.5 8.18 0 2.78-1.4 5.8-2.66 5.45-8.75 8.35t-12.94 2.9q-2.32 0-4.64-.35-15.77-2.67-29.11-20.99-.7-1.05-.7-2.09 0-2.55 3.42-4.7t6.79-2.15q2.55 0 3.71 1.51 7.19 9.75 14.15 14.27 6.38 4.18 10.79 4.18 3.6 0 3.6-3.14 0-2.2-1.74-5.45-1.74-3.13-4.53-5.91-2.78-2.79-7.07-6.38l-3.14-2.67q-.46-.47-4.29-3.37-3.13-2.32-5.33-4.29-2.21-1.97-3.72-4.29-1.97-3.13-1.97-6.5 0-5.22 4.47-9.57 4.46-4.35 10.26-5.97 3.72-1.04 7.08-1.04 6.26 0 12.12 2.9t11.89 8q1.05.81 1.05 1.97 0 2.21-3.6 4.29-3.6 2.09-7.08 2.09-2.32 0-3.48-1.04m66.25 38.39q1.74.58 1.74 2.09 0 1.86-2.2 4.06-2.44 2.44-6.27 2.44-1.85 0-3.13-.47-6.15-1.97-11.14-1.97-8.7 0-17.74 5.57-1.51 1.04-3.66 1.68-2.14.64-4 .64-1.74 0-2.78-.64-1.05-.64-1.05-2.03 0-.81.23-1.39 3.37-9.4 5.4-16.94t2.72-15.31q1.05-10.44 1.05-15.31 0-12.88-4.99-19.72-.58-.7-.58-1.86 0-2.32 3.25-4.35t6.38-2.03q2.09 0 3.01.93 1.51.58 1.98 1.86 2.9 7.65 8 12.93t12.06 5.28q1.28 0 3.83-.46 1.63-.24 2.09-.24 1.97 0 2.96.87.98.87.98 2.38 0 1.63-1.33 3.25t-3.54 2.32q-4.75 1.62-9.51 1.62-5.68 0-10.9-2.32-.24 6.5-.58 9.75l-.82 7.31q4.53-.82 9.05-1.4l1.63-.11q4.64 0 4.64 3.13 0 2.09-2.32 3.71-2.32 1.63-4.76 2.09-3.6.7-9.86 1.51-1.28 5.68-2.78 10.67 7.65-2.78 15.54-2.78 8.7 0 17.4 3.24"/><rect width="45.729" height="121.298" x="311.688" y="619.967" fill="none" stroke="#3e3e3e" stroke-width="2" rx="22" ry="22" transform="matrix(0 -.92 .92 0 400.69 470.74)"/><rect width="77.215" height="23.73" x="587.56" y="-319.652" fill="none" rx="0" ry="0" transform="translate(400.51 471.24)"/><path fill="#3e3e3e" d="M995.927 166.373q6.83-.38 10.59-.84-.36 1.09-.55 2.31-.19 1.21-.19 2.2h-15.01l-.02-.44q0-2.06 1.2-3.57 1.21-1.51 3.37-2.79.63-.38 1.98-.97 1.74-.75 2.69-1.33.94-.58.94-1.15 0-.71-.59-1.13-.58-.42-1.82-.42-1.37 0-2.07.69-.71.7-.71 1.77 0 .33.07.69-2.65-.34-5.15-.46 0-1.79.94-3.23.93-1.43 2.81-2.27t4.61-.84q2.5 0 4.17.68t2.46 1.72q.78 1.04.78 2.13 0 1.26-.55 2.16-.56.91-1.6 1.61t-2.78 1.52q-.25.13-.82.29-.57.15-.71.2-1.5.44-2.38.73-.88.3-1.66.74m21.08 3.88q-4.52 0-6.66-2.08t-2.14-5.77q0-3.68 2.15-5.75 2.15-2.06 6.65-2.06 4.49 0 6.63 2.06 2.14 2.07 2.14 5.75 0 3.69-2.14 5.77t-6.63 2.08m.02-3.67q1.93 0 2.81-1.19t.88-2.99q0-1.79-.88-2.97-.88-1.19-2.81-1.19-2 0-2.89 1.19-.89 1.18-.89 2.97 0 1.78.89 2.98t2.89 1.2m15.7-.21q6.82-.38 10.58-.84-.36 1.09-.55 2.31-.19 1.21-.19 2.2h-15.01l-.02-.44q0-2.06 1.21-3.57 1.2-1.51 3.37-2.79.63-.38 1.97-.97 1.74-.75 2.69-1.33.94-.58.94-1.15 0-.71-.58-1.13-.59-.42-1.83-.42-1.37 0-2.07.69-.7.7-.7 1.77 0 .33.06.69-2.65-.34-5.15-.46 0-1.79.94-3.23.93-1.43 2.81-2.27t4.61-.84q2.5 0 4.17.68t2.46 1.72.79 2.13q0 1.26-.56 2.16-.56.91-1.6 1.61t-2.78 1.52q-.25.13-.82.29-.57.15-.71.2-1.49.44-2.38.73-.88.3-1.65.74m27.13-2.94h2.85v3.94h-2.85v2.67h-5.02q.08-.88.12-2.67h-9.97v-4.24q4.89-3.76 8.74-8.33h6.13Zm-4.85 0 .06-4.48q-1.45 1.49-2.5 2.49t-2.37 1.99Z"/></g><path fill="transparent" stroke="transparent" d="M720 0h560v184H720z"/></g></svg>