<svg xmlns="http://www.w3.org/2000/svg" xml:space="preserve" width="2000" height="98" data-id="lg_QvPgxml3ebGJAytnAx" data-version="1" viewBox="0 0 2000 98"><g data-padding="20"><g transform="translate(10 1.75)scale(.96429)"><rect width="367.137" height="98.31" x="442.595" y="-400.535" fill="none" rx="0" ry="0" transform="translate(304.07 400.38)"/><path fill="#001f3f" d="M768.523 76.71q-5.75 0-10.36-2.01-4.61-2-7.65-5.91l6.09-5.22q2.61 3.04 5.7 4.39 3.08 1.35 7 1.35 1.56 0 2.91-.39t2.35-1.18q1-.78 1.52-1.87.53-1.08.53-2.39 0-2.26-1.66-3.65-.87-.61-2.74-1.35t-4.83-1.52q-5.04-1.31-8.26-2.96t-4.96-3.74q-1.3-1.66-1.91-3.61-.61-1.96-.61-4.31 0-3.83 2.17-6.79 2.18-2.95 5.88-4.65 3.69-1.7 8.3-1.7 3.22 0 6.4.87 3.17.87 5.87 2.53 2.7 1.65 4.52 3.91l-5.13 5.66q-1.65-1.66-3.61-2.92t-3.96-1.96q-2-.69-3.65-.69-1.83 0-3.31.35-1.48.34-2.48 1.04t-1.52 1.74-.52 2.35q.09 1.13.56 2.13.48 1 1.35 1.7.96.69 2.87 1.48 1.92.78 4.88 1.48 4.35 1.13 7.17 2.47 2.83 1.35 4.48 3.09 1.74 1.66 2.44 3.83.7 2.18.7 4.87 0 3.92-2.22 7.01t-5.96 4.83-8.35 1.74m23.83-.88V30.15h8.96v9.4l-1.56 1.04q.87-3.04 3.39-5.61t6-4.18 7.14-1.61q5.22 0 8.7 2.05 3.48 2.04 5.22 6.22 1.74 4.17 1.74 10.53v27.84h-8.96V48.59q0-3.91-1.05-6.48-1.04-2.56-3.22-3.74-2.17-1.17-5.39-1-2.61 0-4.78.83-2.18.82-3.79 2.3t-2.52 3.44q-.92 1.96-.92 4.22v27.67h-6.69Zm84.31.01h-8.09V46.08q0-3.83-2.74-6.22-2.75-2.39-6.92-2.39-3.83 0-6.92 1.56-3.09 1.57-5.61 4.79l-5.83-5.83q4.09-4.44 8.83-6.61 4.74-2.18 10.22-2.18 5.22 0 9.05 1.74t5.92 5.09 2.09 8.14Zm-21.75.87q-4.44 0-7.92-1.74t-5.52-4.83q-2.05-3.09-2.05-7.27 0-3.65 1.31-6.44 1.3-2.78 3.87-4.61 2.56-1.82 6.44-2.78 3.87-.96 8.91-.96h12.7l-.78 7.14h-13.05q-2.61 0-4.65.47-2.05.48-3.48 1.48-1.44 1-2.13 2.35-.7 1.35-.7 3.18 0 1.91.96 3.35.95 1.43 2.61 2.22 1.65.78 3.82.78 3.14 0 5.96-1.09 2.83-1.09 5.05-3t3.44-4.26l2.08 5.83q-1.82 3.04-4.52 5.3-2.7 2.27-5.83 3.57-3.13 1.31-6.52 1.31m39.5 18.27h-9.04V30.16h9.04V40.6l-1.39-.78q.52-2.61 2.96-5.01 2.44-2.39 5.96-3.91t7.26-1.52q6.18 0 10.97 3.04 4.78 3.05 7.57 8.35 2.78 5.31 2.78 12.18 0 6.79-2.74 12.14t-7.53 8.44q-4.78 3.09-10.78 3.09-4.01 0-7.75-1.61t-6.35-4.13q-2.61-2.53-3.22-5.22l2.26-1.22Zm13.58-26.63q4 0 7.13-2t4.96-5.48 1.83-7.92q0-4.43-1.79-7.87-1.78-3.44-4.91-5.44t-7.22-2-7.22 1.96q-3.14 1.96-4.96 5.44-1.83 3.48-1.83 7.91 0 4.44 1.83 7.92 1.82 3.48 4.96 5.48 3.13 2 7.22 2m50.97 8.36q-7.05 0-12.49-3.01-5.43-3-8.52-8.22t-3.09-12q0-5.4 1.74-9.83 1.74-4.44 4.83-7.7 3.09-3.27 7.39-5.05 4.31-1.78 9.36-1.78 4.43 0 8.26 1.69 3.83 1.7 6.66 4.66 2.82 2.96 4.35 7 1.52 4.05 1.43 8.83l-.09 3.83h-37.32l-2-7.13h31.58l-1.3 1.47v-2.08q-.26-2.87-1.92-5.14-1.65-2.26-4.17-3.56-2.53-1.31-5.48-1.31-4.7 0-7.92 1.78-3.22 1.79-4.87 5.22-1.66 3.44-1.66 8.49 0 4.78 2 8.31 2.01 3.52 5.66 5.43 3.65 1.92 8.44 1.92 3.39 0 6.31-1.13 2.91-1.13 6.3-4.09l4.53 6.35q-2.09 2.09-5.09 3.65-3 1.57-6.35 2.48-3.35.92-6.57.92m62.21-.87h-8.09V46.08q0-3.83-2.74-6.22t-6.91-2.39q-3.83 0-6.92 1.56-3.09 1.57-5.61 4.79l-5.83-5.83q4.09-4.44 8.83-6.61 4.74-2.18 10.22-2.18 5.22 0 9.05 1.74t5.92 5.09q2.08 3.35 2.08 8.14Zm-21.75.87q-4.43 0-7.91-1.74t-5.53-4.83q-2.04-3.09-2.04-7.27 0-3.65 1.3-6.44 1.31-2.78 3.87-4.61 2.57-1.82 6.44-2.78t8.92-.96h12.7l-.78 7.14h-13.05q-2.61 0-4.66.47-2.04.48-3.48 1.48-1.43 1-2.13 2.35-.69 1.35-.69 3.18 0 1.91.95 3.35.96 1.43 2.61 2.22 1.66.78 3.83.78 3.13 0 5.96-1.09t5.05-3 3.43-4.26l2.09 5.83q-1.83 3.04-4.52 5.3-2.7 2.27-5.83 3.57-3.13 1.31-6.53 1.31m45.67 0q-5.74 0-10.35-2.01-4.62-2-7.66-5.91l6.09-5.22q2.61 3.04 5.7 4.39t7 1.35q1.57 0 2.92-.39 1.34-.39 2.35-1.18 1-.78 1.52-1.87.52-1.08.52-2.39 0-2.26-1.65-3.65-.87-.61-2.74-1.35t-4.83-1.52q-5.05-1.31-8.27-2.96t-4.96-3.74q-1.3-1.66-1.91-3.61-.61-1.96-.61-4.31 0-3.83 2.18-6.79 2.17-2.95 5.87-4.65t8.31-1.7q3.22 0 6.39.87 3.18.87 5.87 2.53 2.7 1.65 4.53 3.91l-5.14 5.66q-1.65-1.66-3.61-2.92-1.95-1.26-3.95-1.96-2.01-.69-3.66-.69-1.83 0-3.3.35-1.48.34-2.48 1.04t-1.53 1.74q-.52 1.04-.52 2.35.09 1.13.57 2.13t1.35 1.7q.95.69 2.87 1.48 1.91.78 4.87 1.48 4.35 1.13 7.18 2.47 2.82 1.35 4.48 3.09 1.74 1.66 2.43 3.83.7 2.18.7 4.87 0 3.92-2.22 7.01t-5.96 4.83-8.35 1.74m41.16 19.13h-9.66l9.22-21.32.09 7.13-22.79-51.5h10.44l14.27 33.58q.43.87 1.04 2.66.61 1.78 1.04 3.52l-2.26.52q.7-1.83 1.35-3.65.65-1.83 1.26-3.66l11.92-32.97h10.61l-18.79 45.68Z"/><rect width="182.613" height="93.79" x="534.856" y="-398.275" fill="none" rx="0" ry="0" transform="translate(589.2 399.08)"/><path fill="#001f3f" d="M1136.013 73.27h-8.05V64.8h8.05Zm27.63.67q-6.23 0-10.79-2.86-4.57-2.86-7.1-7.76t-2.53-10.79q0-5.98 2.53-10.83 2.53-4.86 7.1-7.72 4.56-2.87 10.79-2.87 7.39 0 12.57 3.82 5.19 3.82 7.02 9.88h-6.73q-1.41-3.57-4.52-5.81t-7.51-2.24q-4.57 0-7.97 2.16-3.4 2.15-5.23 5.72-1.82 3.57-1.82 7.89 0 4.23 1.82 7.84 1.83 3.61 5.23 5.77t7.97 2.16q4.4 0 7.51-2.24t4.52-5.81h6.73q-1.83 6.06-7.02 9.87-5.18 3.82-12.57 3.82m45.32 0q-6.31 0-10.96-2.86t-7.14-7.76-2.49-10.79q0-5.98 2.49-10.83 2.49-4.86 7.14-7.72 4.65-2.87 10.96-2.87 6.39 0 10.99 2.87 4.61 2.86 7.1 7.72 2.49 4.85 2.49 10.83 0 5.89-2.49 10.79t-7.1 7.76q-4.6 2.86-10.99 2.86m0-5.64q4.65 0 7.84-2.16 3.2-2.16 4.86-5.77t1.66-7.84q0-4.32-1.66-7.89t-4.86-5.72q-3.19-2.16-7.84-2.16-4.57 0-7.8 2.16-3.24 2.15-4.9 5.72t-1.66 7.89q0 4.23 1.66 7.84t4.9 5.77q3.23 2.16 7.8 2.16m35.03 4.97h-6.22v-41.5h6.22v6.31q1.41-2.49 4.49-4.73 3.07-2.25 8.13-2.25 4.15 0 7.68 2.2 3.52 2.2 5.52 6.19.83-1.41 2.61-3.41 1.79-1.99 4.69-3.48 2.91-1.5 6.97-1.5 3.99 0 7.47 2.08 3.49 2.07 5.69 5.93t2.2 9.09v25.07h-6.23v-24.9q0-5.23-2.94-8.43-2.95-3.19-7.35-3.19-4.56 0-7.88 3.07t-3.32 8.63v24.82h-6.23v-24.9q0-5.23-2.95-8.43-2.94-3.19-7.34-3.19-4.57 0-7.89 3.07t-3.32 8.63Z"/></g><path fill="transparent" stroke="transparent" d="M720 0h560v98H720z"/></g></svg>